<svg aria-hidden="true" style="position: absolute; width: 0; height: 0; overflow: hidden;" version="1.1" xmlns="http://www.w3.org/2000/svg" xmlns:xlink="http://www.w3.org/1999/xlink">
<defs>
<symbol id="icon-ac" viewBox="0 0 31 32">
<path d="M15.082 5.139c-1.31 0-2.58 0.466-3.593 1.318s-1.707 2.037-1.965 3.355l-0.101 0.523c-0.027 0.117-0.031 0.238-0.011 0.357s0.063 0.232 0.126 0.333c0.063 0.101 0.146 0.188 0.243 0.256s0.206 0.115 0.321 0.138c0.115 0.024 0.233 0.023 0.348-0.001s0.223-0.072 0.32-0.14c0.096-0.068 0.178-0.156 0.241-0.257s0.105-0.215 0.124-0.333l0.103-0.521c0.193-0.977 0.733-1.845 1.516-2.437s1.75-0.865 2.717-0.766c0.967 0.098 1.864 0.562 2.517 1.3s1.016 1.698 1.019 2.695c0 1.068-0.414 2.093-1.15 2.849s-1.735 1.181-2.777 1.181h-12.655c-0.231 0-0.453 0.094-0.617 0.262s-0.256 0.396-0.256 0.633c0 0.237 0.092 0.465 0.256 0.633s0.386 0.262 0.617 0.262h12.655c1.48-0.037 2.887-0.666 3.922-1.753s1.613-2.545 1.614-4.063c0-1.519-0.578-2.977-1.611-4.064s-2.441-1.717-3.921-1.755zM25.115 13.195c-1.157 0-2.267 0.472-3.086 1.311s-1.278 1.978-1.278 3.165c0 0.237 0.092 0.465 0.256 0.633s0.386 0.262 0.617 0.262c0.231 0 0.453-0.094 0.617-0.262s0.256-0.396 0.256-0.633c0-0.531 0.154-1.050 0.441-1.492s0.697-0.786 1.175-0.989c0.478-0.203 1.005-0.256 1.513-0.153s0.974 0.359 1.341 0.735c0.366 0.376 0.615 0.854 0.716 1.375s0.049 1.061-0.149 1.552c-0.198 0.491-0.534 0.91-0.964 1.205s-0.937 0.453-1.455 0.453h-22.691c-0.231 0-0.453 0.094-0.617 0.262s-0.256 0.396-0.256 0.633c0 0.237 0.092 0.465 0.256 0.633s0.386 0.262 0.617 0.262h17.018c0.579 0.001 1.133 0.238 1.542 0.659s0.637 0.99 0.636 1.584c-0.001 0.593-0.232 1.162-0.642 1.581s-0.965 0.653-1.544 0.652c-0.521 0-1.026-0.189-1.424-0.533s-0.665-0.823-0.752-1.35l-0.009-0.054c-0.016-0.119-0.055-0.233-0.114-0.336s-0.139-0.193-0.233-0.264c-0.094-0.071-0.201-0.122-0.315-0.15s-0.232-0.032-0.347-0.012c-0.115 0.020-0.225 0.063-0.324 0.127s-0.184 0.148-0.25 0.247c-0.067 0.099-0.113 0.21-0.137 0.327s-0.024 0.238-0.002 0.356l0.009 0.054c0.155 0.945 0.632 1.803 1.345 2.422s1.618 0.958 2.552 0.958c1.043 0 2.043-0.423 2.781-1.179s1.154-1.78 1.155-2.849c0-0.829-0.244-1.599-0.662-2.238h2.407c1.157 0 2.267-0.472 3.086-1.311s1.278-1.978 1.278-3.165-0.46-2.325-1.278-3.165c-0.818-0.839-1.928-1.311-3.086-1.311z"></path>
<path d="M15.082 5.139l0.125-4.847-0.063-0.002h-0.063l0.001 4.848zM9.525 9.812l-4.759-0.93-0.001 0.008 4.76 0.922zM9.424 10.335l4.725 1.088 0.019-0.083 0.016-0.083-4.76-0.922zM11.134 10.685l-4.756-0.94-0.017 0.086-0.014 0.087 4.787 0.768zM11.237 10.165v0zM19.006 10.956h4.848v-0.012l-4.849 0.012zM15.079 14.986v4.848h0.002l-0.002-4.848zM1.552 15.881v0zM15.079 16.776v4.848h0.061l0.061-0.002-0.122-4.847zM22.497 17.671v0zM1.552 21.251v0zM19.443 22.146l0.010-4.848h-0.010v4.849zM19.434 26.622l0.010-4.848h-0.014l0.004 4.849zM17.257 24.739l-4.786 0.778 0.001 0.008 0.001 0.008 4.783-0.793zM17.248 24.685l-4.807 0.635 0.009 0.071 0.012 0.071 4.786-0.778zM15.527 24.979l4.786-0.778-0.011-0.070-0.013-0.069-4.761 0.917zM15.536 25.032l-4.786 0.778 0.001 0.008 4.784-0.786zM19.434 28.412l0.002-4.848h-0.003l0.001 4.849zM23.37 24.384l4.848 0.008v-0.008h-4.849zM22.708 22.146v-4.848h-8.955l4.895 7.499 4.060-2.65zM15.081 0.291c-2.464 0.001-4.835 0.877-6.712 2.455l6.24 7.422c0.15-0.126 0.318-0.18 0.474-0.18l-0.002-9.697zM8.37 2.746c-1.874 1.576-3.137 3.748-3.603 6.136l9.517 1.859c0.048-0.247 0.174-0.445 0.326-0.573l-6.24-7.422zM4.765 8.89l-0.101 0.523 9.52 1.844 0.101-0.523-9.52-1.844zM4.699 9.247c-0.169 0.736-0.192 1.498-0.068 2.242l9.565-1.596c0.085 0.507 0.069 1.027-0.047 1.529l-9.45-2.175zM4.63 11.489c0.124 0.744 0.394 1.461 0.799 2.107l8.219-5.146c0.278 0.444 0.462 0.935 0.547 1.442l-9.565 1.596zM5.429 13.597c0.405 0.646 0.938 1.211 1.572 1.656l5.559-7.945c0.441 0.309 0.809 0.7 1.087 1.144l-8.219 5.146zM7.001 15.252c0.635 0.444 1.358 0.758 2.126 0.915l1.948-9.499c0.538 0.11 1.043 0.33 1.485 0.639l-5.559 7.945zM9.128 16.168c0.768 0.158 1.561 0.155 2.328-0.008l-2.012-9.486c0.538-0.114 1.094-0.116 1.632-0.005l-1.948 9.499zM11.456 16.16c0.767-0.163 1.488-0.481 2.12-0.929l-5.611-7.908c0.439-0.312 0.942-0.534 1.48-0.648l2.012 9.486zM13.575 15.231c0.632-0.448 1.161-1.016 1.561-1.665l-8.252-5.093c0.275-0.446 0.64-0.839 1.079-1.151l5.611 7.908zM15.136 13.565c0.4-0.649 0.666-1.367 0.785-2.112l-9.575-1.535c0.081-0.508 0.263-1 0.538-1.445l8.252 5.092zM15.891 11.626l0.103-0.521-9.513-1.88-0.103 0.521 9.513 1.881zM15.993 11.107c-0.034 0.169-0.133 0.349-0.315 0.487l-5.852-7.732c-1.746 1.321-2.925 3.238-3.346 5.361l9.512 1.884zM15.679 11.594c-0.185 0.14-0.436 0.218-0.7 0.191l0.983-9.647c-2.198-0.224-4.385 0.4-6.135 1.724l5.852 7.732zM14.979 11.785c-0.263-0.027-0.48-0.151-0.622-0.31l7.261-6.427c-1.448-1.636-3.459-2.686-5.657-2.91l-0.983 9.647zM14.357 11.474c-0.139-0.156-0.199-0.338-0.199-0.507l9.697-0.023c-0.005-2.162-0.791-4.265-2.237-5.897l-7.261 6.427zM14.158 10.956c0-0.178 0.068-0.373 0.226-0.535l6.945 6.768c1.631-1.674 2.526-3.918 2.526-6.233h-9.697zM14.384 10.421c0.162-0.167 0.409-0.283 0.693-0.284l0.004 9.697c2.367-0.001 4.612-0.967 6.247-2.645l-6.945-6.768zM15.079 10.137h-12.655v9.697h12.655v-9.697zM2.424 10.137c-1.558 0-3.026 0.636-4.089 1.726l6.943 6.769c-0.736 0.754-1.76 1.202-2.854 1.202v-9.697zM-1.664 11.863c-1.059 1.086-1.633 2.533-1.633 4.018h9.697c0 1.009-0.39 2.002-1.121 2.752l-6.943-6.769zM-3.297 15.881c0 1.484 0.574 2.932 1.633 4.018l6.943-6.769c0.732 0.75 1.121 1.742 1.121 2.752h-9.697zM-1.664 19.898c1.063 1.090 2.531 1.726 4.089 1.726v-9.697c1.095 0 2.119 0.447 2.854 1.202l-6.943 6.769zM2.424 21.624h12.655v-9.697h-12.655v9.697zM15.201 21.623c2.784-0.070 5.405-1.253 7.312-3.257l-7.024-6.685c-0.161 0.169-0.355 0.244-0.531 0.249l0.244 9.694zM22.513 18.365c1.903-2 2.949-4.659 2.95-7.404l-9.697-0.003c-0 0.292-0.113 0.549-0.278 0.722l7.024 6.685zM25.463 10.961c0.001-2.745-1.044-5.405-2.946-7.406l-7.028 6.681c0.165 0.174 0.277 0.431 0.277 0.723l9.697 0.003zM22.517 3.554c-1.906-2.005-4.526-3.19-7.31-3.262l-0.25 9.694c0.176 0.005 0.37 0.079 0.531 0.249l7.028-6.681zM25.115 8.347c-2.483 0-4.839 1.013-6.557 2.775l6.943 6.769c-0.081 0.083-0.217 0.153-0.386 0.153v-9.697zM18.558 11.121c-1.714 1.757-2.655 4.116-2.655 6.549h9.697c0 0.060-0.022 0.141-0.099 0.22l-6.943-6.769zM15.903 17.671c0 1.484 0.574 2.932 1.633 4.018l6.943-6.769c0.732 0.75 1.121 1.742 1.121 2.752h-9.697zM17.536 21.689c1.063 1.090 2.531 1.726 4.089 1.726v-9.697c1.095 0 2.119 0.447 2.854 1.202l-6.943 6.769zM21.624 23.415c1.558 0 3.026-0.636 4.089-1.726l-6.943-6.769c0.736-0.755 1.76-1.202 2.854-1.202v9.697zM25.713 21.689c1.059-1.086 1.633-2.533 1.633-4.018h-9.697c0-1.009 0.39-2.002 1.121-2.752l6.943 6.769zM27.346 17.671c0 0.401-0.115 0.802-0.345 1.155l-8.125-5.293c-0.805 1.235-1.227 2.675-1.227 4.138h9.697zM27.001 18.826c-0.23 0.353-0.57 0.648-0.992 0.827l-3.792-8.925c-1.378 0.585-2.536 1.568-3.342 2.805l8.125 5.293zM26.009 19.652c-0.423 0.18-0.895 0.229-1.352 0.135l1.938-9.501c-1.473-0.3-2.998-0.145-4.378 0.441l3.792 8.925zM24.657 19.788c-0.456-0.093-0.858-0.32-1.162-0.631l6.943-6.769c-1.036-1.063-2.371-1.8-3.843-2.101l-1.938 9.501zM23.495 19.157c-0.302-0.31-0.495-0.69-0.572-1.087l9.52-1.846c-0.279-1.438-0.97-2.775-2.005-3.837l-6.943 6.769zM22.923 18.070c-0.077-0.396-0.038-0.807 0.115-1.187l8.991 3.631c0.55-1.361 0.692-2.853 0.413-4.29l-9.52 1.846zM23.038 16.883c0.154-0.381 0.422-0.727 0.791-0.979l5.482 7.999c1.229-0.842 2.169-2.026 2.719-3.389l-8.991-3.631zM23.829 15.904c0.37-0.253 0.817-0.396 1.286-0.396v9.697c1.505 0 2.965-0.458 4.195-1.302l-5.482-7.999zM25.115 15.508h-22.691v9.697h22.691v-9.697zM2.424 15.508c-1.558 0-3.026 0.636-4.089 1.726l6.943 6.769c-0.736 0.754-1.76 1.202-2.854 1.202v-9.697zM-1.664 17.234c-1.059 1.086-1.633 2.533-1.633 4.018h9.697c0 1.009-0.39 2.001-1.121 2.752l-6.943-6.769zM-3.297 21.251c0 1.484 0.574 2.932 1.633 4.018l6.943-6.769c0.732 0.75 1.121 1.742 1.121 2.752h-9.697zM-1.664 25.269c1.063 1.090 2.531 1.726 4.089 1.726v-9.697c1.095 0 2.119 0.447 2.854 1.202l-6.943 6.769zM2.424 26.995h17.018v-9.697h-17.018v9.697zM19.433 26.995c-0.747-0.002-1.438-0.309-1.927-0.812l6.956-6.756c-1.306-1.345-3.105-2.125-5.010-2.129l-0.020 9.697zM17.506 26.183c-0.485-0.499-0.736-1.15-0.734-1.804l9.697 0.019c0.004-1.84-0.705-3.631-2.006-4.971l-6.957 6.756zM16.771 24.379c0.001-0.653 0.254-1.303 0.742-1.801l6.929 6.783c1.307-1.335 2.022-3.123 2.026-4.963l-9.697-0.019zM17.513 22.578c0.491-0.502 1.183-0.806 1.931-0.805l-0.020 9.697c1.905 0.004 3.708-0.77 5.019-2.109l-6.929-6.783zM19.43 21.773c0.659-0 1.279 0.239 1.752 0.649l-6.345 7.333c1.27 1.099 2.899 1.716 4.6 1.715l-0.007-9.697zM21.182 22.422c0.47 0.407 0.763 0.951 0.858 1.523l-9.566 1.587c0.27 1.626 1.096 3.127 2.363 4.223l6.345-7.333zM22.043 23.961l-0.009-0.054-9.572 1.555 0.009 0.054 9.572-1.555zM22.055 24.050c-0.099-0.746-0.343-1.469-0.722-2.126l-8.396 4.851c-0.261-0.451-0.427-0.946-0.494-1.454l9.613-1.27zM21.333 21.923c-0.38-0.658-0.89-1.239-1.505-1.705l-5.851 7.733c-0.427-0.323-0.779-0.725-1.040-1.177l8.396-4.851zM19.828 20.219c-0.616-0.466-1.323-0.805-2.082-0.992l-2.316 9.416c-0.532-0.131-1.025-0.368-1.453-0.692l5.851-7.733zM17.745 19.227c-0.759-0.187-1.549-0.215-2.32-0.084l1.631 9.559c-0.541 0.092-1.095 0.072-1.627-0.059l2.316-9.416zM15.425 19.143c-0.771 0.132-1.503 0.42-2.152 0.842l5.286 8.129c-0.452 0.294-0.963 0.495-1.504 0.588l-1.631-9.559zM13.273 19.985c-0.649 0.422-1.2 0.967-1.626 1.599l8.038 5.425c-0.293 0.434-0.674 0.812-1.125 1.106l-5.286-8.129zM11.647 21.583c-0.426 0.631-0.72 1.337-0.87 2.075l9.503 1.929c-0.102 0.503-0.303 0.987-0.596 1.421l-8.038-5.425zM10.778 23.658c-0.15 0.738-0.154 1.498-0.011 2.237l9.522-1.833c0.097 0.504 0.094 1.022-0.008 1.525l-9.503-1.929zM10.742 25.756l0.009 0.054 9.572-1.555-0.009-0.054-9.572 1.555zM10.752 25.818c0.336 2.045 1.371 3.927 2.953 5.299l6.353-7.326c0.155 0.134 0.237 0.3 0.262 0.455l-9.569 1.571zM13.705 31.117c1.585 1.375 3.614 2.144 5.73 2.143l-0.002-9.697c0.247-0 0.467 0.090 0.625 0.227l-6.353 7.326zM19.432 33.261c2.367 0.001 4.613-0.963 6.251-2.639l-6.935-6.777c0.162-0.165 0.407-0.281 0.689-0.281l-0.004 9.697zM25.682 30.622c1.634-1.672 2.532-3.914 2.536-6.229l-9.697-0.017c0-0.177 0.068-0.37 0.225-0.531l6.935 6.777zM28.218 24.384c0-1.793-0.531-3.48-1.45-4.888l-8.12 5.3c-0.085-0.13-0.127-0.277-0.127-0.412h9.697zM22.708 26.995h2.407v-9.697h-2.407v9.697zM25.115 26.995c2.483 0 4.839-1.013 6.557-2.775l-6.943-6.769c0.081-0.083 0.217-0.153 0.386-0.153v9.697zM31.672 24.22c1.714-1.757 2.655-4.116 2.655-6.549h-9.697c0-0.060 0.022-0.141 0.099-0.22l6.943 6.769zM34.327 17.671c0-2.434-0.941-4.792-2.655-6.549l-6.943 6.769c-0.077-0.079-0.099-0.16-0.099-0.22h9.697zM31.672 11.121c-1.718-1.762-4.074-2.775-6.557-2.775v9.697c-0.169 0-0.305-0.070-0.386-0.153l6.943-6.769z"></path>
</symbol>
<symbol id="icon-automatic" viewBox="0 0 32 32">
<path stroke-linejoin="round" stroke-linecap="round" stroke-miterlimit="4" stroke-width="1.7455" d="M22.465 14.707h1.939c0.514 0 1.008-0.204 1.371-0.568s0.568-0.857 0.568-1.371c0-0.514-0.204-1.008-0.568-1.371s-0.857-0.568-1.371-0.568h-1.939v6.465M22.465 22.465v5.172h1.293c0.686 0 1.343-0.273 1.828-0.757s0.757-1.143 0.757-1.829c0-0.686-0.273-1.343-0.757-1.828s-1.143-0.757-1.828-0.757h-1.293zM4.364 6.949c0 0.686 0.272 1.344 0.757 1.828s1.143 0.757 1.828 0.757c0.686 0 1.344-0.272 1.828-0.757s0.757-1.143 0.757-1.828c0-0.686-0.272-1.344-0.757-1.828s-1.143-0.757-1.828-0.757c-0.686 0-1.344 0.272-1.828 0.757s-0.757 1.143-0.757 1.828z"></path>
<path stroke-linejoin="round" stroke-linecap="round" stroke-miterlimit="4" stroke-width="1.7455" d="M6.95 9.535v3.879c0 0.343 0.136 0.672 0.379 0.914s0.571 0.379 0.914 0.379h3.879M12.121 14.707v9.050c0 0.343 0.136 0.672 0.379 0.914s0.571 0.379 0.914 0.379h3.879M12.121 14.707h5.172"></path>
</symbol>
<symbol id="icon-kitchen" viewBox="0 0 32 32">
<path stroke-linejoin="round" stroke-linecap="round" stroke-miterlimit="4" stroke-width="1.7455" d="M25.051 19.879v-15.515c-6.227 5.94-6.494 10.756-6.465 15.515h6.465zM25.051 19.879v7.758h-1.293v-3.879M10.828 5.657v21.98M6.95 5.657v3.879c0 1.029 0.409 2.015 1.136 2.743s1.714 1.136 2.743 1.136c1.029 0 2.015-0.409 2.743-1.136s1.136-1.714 1.136-2.743v-3.879"></path>
</symbol>
<symbol id="icon-shower" viewBox="0 0 31 32">
<path stroke-linejoin="round" stroke-linecap="round" stroke-miterlimit="4" stroke-width="1.9394" d="M5.172 5.657l3.232 3.232M17.454 8.889c-1.204-1.18-2.826-1.837-4.512-1.829s-3.301 0.682-4.493 1.874c-1.192 1.192-1.866 2.807-1.874 4.493s0.649 3.308 1.829 4.512M19.394 6.949l-12.929 12.929M18.101 22.465v0.013M12.929 21.172v0.013M16.808 17.293v0.013M20.687 13.414v0.013M14.222 26.343v0.013M21.98 18.586v0.013M25.859 14.707v0.013"></path>
</symbol>
<symbol id="icon-tv" viewBox="0 0 31 32">
<path stroke-linejoin="round" stroke-linecap="round" stroke-miterlimit="4" stroke-width="1.7455" d="M23.273 25.697h-15.515c-2.149 0-3.879-1.73-3.879-3.879v-9.697c0-2.149 1.73-3.879 3.879-3.879h15.515c2.149 0 3.879 1.73 3.879 3.879v9.697c0 2.149-1.73 3.879-3.879 3.879z"></path>
<path stroke-linejoin="round" stroke-linecap="round" stroke-miterlimit="4" stroke-width="1.7455" d="M11.636 29.576h7.758"></path>
<path stroke-linejoin="round" stroke-linecap="round" stroke-miterlimit="4" stroke-width="1.7455" d="M15.515 8.242l5.818-5.818"></path>
<path stroke-linejoin="round" stroke-linecap="round" stroke-miterlimit="4" stroke-width="1.7455" d="M15.515 8.242l-5.818-5.818"></path>
</symbol>
</defs>
</svg>
